<?xml version="1.0" encoding="UTF-8"?>
<!DOCTYPE svg PUBLIC "-//W3C//DTD SVG 1.1//EN" "http://www.w3.org/Graphics/SVG/1.1/DTD/svg11.dtd">
<!-- Creator: CorelDRAW X6 -->
<svg xmlns="http://www.w3.org/2000/svg" xml:space="preserve" width="500px" height="492px" version="1.1" style="shape-rendering:geometricPrecision; text-rendering:geometricPrecision; image-rendering:optimizeQuality; fill-rule:evenodd; clip-rule:evenodd"
viewBox="0 0 500 492"
 xmlns:xlink="http://www.w3.org/1999/xlink">
 <defs>
  <style type="text/css">
   <![CDATA[
    .fil21 {fill:#122836}
    .fil8 {fill:#2B2B33}
    .fil20 {fill:#2C79A7}
    .fil11 {fill:#314A59}
    .fil23 {fill:#321717}
    .fil12 {fill:#415867}
    .fil14 {fill:#43444B}
    .fil4 {fill:#472C14}
    .fil27 {fill:#4E8EF7}
    .fil22 {fill:#502828}
    .fil19 {fill:#54545B}
    .fil13 {fill:#59626B}
    .fil15 {fill:#653D1C}
    .fil18 {fill:#93374A}
    .fil9 {fill:#A04E60}
    .fil3 {fill:#A4ACB3}
    .fil2 {fill:#A5C0C7}
    .fil24 {fill:#AC6775}
    .fil17 {fill:#BBC3CA}
    .fil7 {fill:#BED4D9}
    .fil25 {fill:#CC9A6A}
    .fil10 {fill:#D2E2E5}
    .fil26 {fill:#D8B089}
    .fil16 {fill:#E5AD74}
    .fil1 {fill:#EABF91}
    .fil5 {fill:#ECEEF1}
    .fil0 {fill:#EDCDAA}
    .fil6 {fill:white}
    .fnt0 {font-weight:300;font-size:28.2579;font-family:'Lato Light'}
   ]]>
  </style>
   <clipPath id="id0">
    <rect x="3" y="186" width="192" height="303"/>
   </clipPath>
 </defs>
 <g id="Layer_x0020_1">
  <metadata id="CorelCorpID_0Corel-Layer"/>
  <g style="clip-path:url(#id0)">
   <image transform="matrix(1 0 0 1 -247.152 243.126)" x="250" y="-57" width="192" height="303" xlink:href="Untitled-2_Images\Untitled-2_ImgID1.png"/>
  </g>
  <path class="fil0" d="M74 215c0,0 1,5 1,6 0,1 -1,2 -1,2l-1 2c0,0 0,0 0,0 0,1 -1,2 -2,4 -1,1 -1,2 -1,4l-4 1 0 -1c-4,0 -7,3 -7,7 0,4 3,6 7,7l0 22c2,0 3,1 6,2 5,1 10,1 15,0 1,0 5,-1 5,-2 1,-1 -1,1 0,-1 2,1 2,-1 4,-1l-3 0c1,-1 4,0 7,-1l2 -1c1,0 2,-1 2,-2 0,-1 0,0 0,-1 0,0 0,0 0,0 -2,0 -4,0 -6,1 -2,0 -4,0 -6,0 -3,0 -7,-1 -10,-1 -3,0 -6,-5 -7,-8 0,-1 -1,-2 0,-3l4 0 30 0c1,0 1,0 2,-2 1,-2 2,-5 2,-8 -3,1 -6,2 -10,0 -2,-1 -4,-4 -4,-8 0,-3 2,-6 5,-7 4,-2 6,-1 9,1 0,-2 -1,-4 -2,-4 -2,-1 -4,-1 -6,-1l0 -1 -1 0 0 -2c-3,0 -5,1 -8,1 -3,0 -6,0 -8,-1 -3,0 -12,-3 -13,-6 -1,0 -2,-1 -2,-2 -1,-1 -1,-2 -2,-2l1 5z"/>
  <path class="fil1" d="M108 222l0 1c2,0 4,0 6,1 2,1 2,2 2,4 5,4 4,10 -1,13 0,2 -1,6 -2,8 -1,2 -1,2 -2,2l0 0c1,0 3,0 4,0l-1 3c-1,3 -4,8 -7,8 -1,1 -1,1 -2,1l1 -1 -1 0c0,0 0,0 0,0 -1,1 0,0 0,1 0,1 -1,1 -2,2l-2 1c-3,1 -6,0 -7,1l3 0c-2,0 -2,2 -4,1 -1,2 1,0 0,1 -1,1 -5,2 -5,2 -5,1 -10,1 -15,0 -3,-1 -5,-2 -6,-2l0 5 2 0 4 1 4 0c6,0 13,1 20,0 3,0 6,0 9,0 6,0 4,0 7,-2 4,-3 6,-7 9,-11 6,-9 3,-10 3,-16 2,0 3,0 5,-1 0,-1 1,-5 1,-6 0,-2 -3,-2 -3,-3 2,0 2,-1 4,0 0,-1 0,-2 0,-2 -1,-1 -2,-1 -4,-1 0,1 0,0 -1,0l-2 -1c-1,-1 -1,-4 -2,-5 -1,-2 -2,-3 -3,-4 -2,-3 1,-4 1,-11 -1,2 -3,3 -5,4 -3,2 -5,2 -6,3 3,1 7,2 8,6 -1,-2 -6,-3 -9,-4z"/>
  <path class="fil2" d="M114 275c0,1 0,2 1,3 0,1 0,1 1,1l2 8 -3 2c-1,0 -2,1 -3,1l-1 0 -5 -7c0,0 0,0 0,0l0 0c0,1 -1,3 -2,4 0,1 -1,1 -1,2 0,1 0,1 -1,2 0,0 0,0 0,0l0 1c0,0 0,1 0,1l1 6c0,2 1,5 1,6l1 2c0,1 0,1 0,2 0,1 1,2 1,4 0,2 1,5 1,6 0,0 0,0 0,0l2 7 0 2c1,0 3,0 3,0l-1 0 -7 -32c0,-2 -1,-2 0,-3l2 -3c0,0 0,-1 1,-1 0,0 0,-1 1,-1 0,0 -1,-1 0,1 1,1 4,6 5,7 2,0 1,0 3,-1l3 -2c0,0 0,0 0,0 0,0 0,0 0,0l5 -4c0,7 0,13 0,20 0,7 0,13 0,20l8 -1 0 2 0 -2 4 0c0,-2 0,-3 0,-5 0,-4 -1,0 -1,-5 0,-9 0,-23 0,-31 0,-1 -2,-5 -2,-6 0,-1 -1,-2 -1,-3 -1,-1 -1,-2 -1,-3 -2,0 -5,1 -7,1 -2,0 -5,0 -7,1z"/>
  <path class="fil3" d="M81 408c-1,0 0,0 -1,0l-14 0c-7,0 -16,0 -23,-1l1 -3 -1 1c-1,1 -4,2 -2,3 1,0 1,0 2,1 3,1 9,1 12,2 3,2 7,2 11,3 2,0 3,1 5,1l13 1c1,0 6,0 7,0l0 -2 11 0 1 2c5,0 9,0 13,0 1,0 5,0 6,-1 1,-1 4,-1 6,-1 2,0 1,0 3,-1 1,0 2,0 3,0 1,0 0,-1 3,-1 3,0 2,0 5,-1 1,0 3,-1 5,-1 1,-1 1,-1 3,-2 2,0 7,-2 7,-3 0,-1 0,-1 -1,-1 -1,-1 -5,-1 -6,-2 0,2 1,2 1,4 -8,1 -15,1 -23,1 -4,0 -14,0 -18,-1 -2,0 -4,0 -5,-1 -1,-5 0,-1 -1,-4 -2,0 -8,0 -10,0 0,1 0,1 0,1 0,1 0,0 -1,1 0,1 0,1 0,2 -2,0 -7,1 -9,1z"/>
  <path class="fil1" d="M25 240c-1,0 0,0 0,1 0,0 0,1 0,1 -1,2 0,2 -1,4 0,0 0,1 0,1l-1 1c0,0 0,0 0,0l-1 -1c0,0 -3,-2 -4,-2 -1,1 0,-1 0,1 2,2 1,7 1,8l3 2c-5,-1 -11,-4 -13,-3 -2,2 0,6 3,7 1,0 2,0 2,0 1,0 1,1 2,1 1,1 3,1 5,1 0,3 2,5 4,7 -1,-1 0,0 3,-3 1,-1 2,-2 3,-4 2,1 0,2 5,0l3 -2c1,-1 0,-1 1,-1l0 0c2,-1 5,-6 5,-7l0 3c0,0 0,0 0,0 0,0 0,0 0,0 0,0 0,0 0,0l0 -1c0,-5 0,-8 3,-13 2,-3 3,-3 1,-6 -2,-2 -5,-3 -6,-1 0,1 1,3 1,4 1,5 1,10 -1,14 -2,4 -8,10 -12,10 0,-1 -1,-2 0,-4 1,-3 3,-4 4,-6 1,-1 2,-2 3,-2 0,-1 0,-2 -1,-2l-7 -11c-1,-2 -2,-4 -3,-6 0,-1 -1,-2 -2,-3 0,-1 -1,-2 -2,-3 -2,0 -4,2 -5,4 -1,3 2,7 4,8l3 6c0,1 2,2 1,3 0,0 0,1 -2,-1 -1,-1 -1,-1 -2,-2z"/>
  <path class="fil4" d="M90 220c2,0 6,1 8,1 3,0 5,-1 8,-1l0 2 1 0c3,0 8,2 9,4 0,-4 -5,-5 -8,-6 1,-1 3,-1 6,-3 2,-1 4,-3 5,-4 0,6 -3,8 -1,11 1,1 2,3 3,4 1,1 2,4 2,5l2 1c1,0 0,0 1,0l0 -1c-1,-1 0,-22 -1,-26l-3 -1c0,-4 -1,-5 -2,-8 -1,1 -1,4 -5,6 0,-3 -2,-8 -5,-10 0,0 -1,4 -1,4 -3,8 -8,16 -15,20 -1,1 -3,2 -4,2z"/>
  <path class="fil5" d="M105 424l4 7c1,1 0,0 1,1l0 9 0 3c1,0 2,0 3,-1 5,-1 10,-2 14,-4l4 -1c1,0 1,-1 1,-1 0,-1 0,-3 0,-5 3,-1 5,-2 7,-4 3,-2 5,-5 5,-5 0,-1 0,-1 1,-1 0,0 0,-1 1,-1 1,-1 0,0 0,-1l-5 1c-1,0 -1,1 -2,1 -1,0 -3,0 -5,1 -1,0 -2,0 -3,0 -3,1 0,0 -5,1 -1,0 -2,0 -3,0 -1,0 -2,0 -3,0 -1,0 -1,0 -2,0 -1,0 -2,0 -3,0l-10 1z"/>
  <path class="fil2" d="M81 290c-1,0 -2,-1 -3,-1l-2 -1c-1,0 0,0 0,0 -1,0 -2,-1 -3,-1 -1,-1 -1,-1 -2,-2 0,1 1,1 2,2 0,0 2,1 2,2 0,2 0,3 0,5l0 14c0,6 0,13 0,19 0,1 0,1 -1,1 0,0 0,0 0,0l9 1 1 -1c0,0 0,0 0,0 0,-1 1,-6 1,-7 1,-3 1,-5 1,-7 1,-4 2,-10 3,-14 0,-1 1,-3 1,-4 0,-2 1,-2 0,-3 -1,-1 -3,-6 -3,-7l-5 7 -1 -1z"/>
  <path class="fil6" d="M146 395c6,1 12,2 17,3 24,7 8,16 -6,18 -1,0 -6,2 -11,2l-1 1c0,1 0,0 0,1 0,0 0,1 -1,1 1,0 4,0 6,0 2,-1 6,-1 8,-1 7,-1 26,-4 32,-11 3,-4 -2,-7 -5,-9 -8,-4 -22,-7 -31,-8l-4 -1c0,0 0,0 0,0 -1,0 -1,0 -3,0 -1,0 -3,0 -4,0 0,0 2,3 2,3z"/>
  <path class="fil7" d="M46 413c0,1 0,2 1,3l0 0 17 3c1,0 2,0 3,0 2,0 3,1 5,1l8 0c2,0 6,1 9,0 0,-1 0,-1 0,-1 0,-1 0,-1 0,-1l1 -3c2,0 9,0 12,0l1 3 12 0c2,0 4,0 6,-1 1,0 9,-1 11,-1 2,0 2,0 4,-1l1 0c2,-1 3,-1 5,-1 2,0 2,-1 3,-1 1,0 1,0 1,0 0,0 0,-1 0,-1l0 -1c1,-1 1,-1 2,-3 -2,1 -2,1 -3,2 -1,1 -3,1 -5,1 -4,1 -2,1 -5,1 -2,0 -2,1 -3,1 -1,0 -2,0 -3,0 -1,0 -1,0 -3,1 -2,0 -5,0 -6,1 -1,0 -5,1 -6,1 -4,0 -8,0 -13,0l-1 -2 -11 0 0 2c-1,0 -6,0 -7,0l-13 -1c-2,0 -3,-1 -5,-1 -4,-1 -7,-1 -11,-3 -2,-1 -9,-1 -12,-2 0,1 0,2 1,3 1,1 1,1 1,2z"/>
  <path class="fil8" d="M122 326l0 0c-1,1 0,24 1,27 0,9 0,18 0,28 2,0 3,0 5,0 1,0 2,0 2,0 1,0 1,0 2,1l-2 -31c0,-1 -1,-12 -1,-14l0 -9 0 -2 -8 1z"/>
  <path class="fil8" d="M104 393l-2 4c0,2 -1,3 -1,6 1,3 1,-1 1,4 2,0 4,0 5,1 4,0 13,1 18,1 9,0 15,0 23,-1 0,-2 0,-2 -1,-4 0,-1 0,-1 -1,-1 -1,-1 0,0 -1,-2 0,-1 -1,-2 -1,-4l-1 -2c0,0 -2,-3 -2,-3l-2 -3c-2,-2 -7,-6 -9,-6 -1,0 0,0 1,1 8,7 5,19 -4,23 -2,1 -9,1 -11,0 -1,-1 -2,0 -4,-2 -1,-1 -1,-1 -2,-2 0,0 0,0 1,-1 0,0 0,0 1,0 0,-1 -1,0 -2,-4 -1,-2 0,-3 -2,-4 0,-1 0,-2 1,-3 0,-1 0,-2 1,-2 0,0 0,-1 1,-1 1,-1 0,0 1,0l0 -1c1,-1 1,-1 2,-1 1,-1 2,-1 1,-1 -1,0 0,0 -1,0 -1,1 -4,2 -5,3 0,-1 0,-3 -1,-4 -1,0 -1,2 -2,2 -1,1 -1,2 -1,3 -1,2 -2,4 -3,5z"/>
  <path class="fil9" d="M94 295c2,0 2,-1 4,-2l-1 8c-1,1 -4,2 -5,3l2 -8c-2,0 -2,2 -4,2 -1,4 -2,10 -3,14 0,2 -1,4 -1,7 0,1 -2,6 -1,7 0,2 -1,3 -1,5 1,0 4,-2 4,-2 1,-1 2,-1 3,-2 1,0 2,-1 3,-1 0,3 -1,5 -1,8 1,0 3,-1 4,-2 3,-2 8,-4 11,-6l-2 -7c0,0 0,0 0,0 -1,1 -9,5 -11,6l1 -4c0,-2 0,-3 2,-4 2,-1 5,-3 7,-4 0,-1 -1,-2 -1,-4 0,-1 0,-1 0,-2l-1 -2c-1,1 -2,1 -3,2 -1,1 -2,1 -3,1l0 0c1,0 0,0 0,1 0,0 -1,7 -2,7 0,0 -1,1 -2,1 -1,0 -1,1 -2,1 -1,1 -2,1 -4,2 2,-7 0,-7 4,-10 1,0 1,0 2,-1 1,0 1,0 2,-1 -1,0 0,0 0,-1 0,-1 0,-1 0,-2 1,-4 0,-4 3,-6 1,0 2,-1 3,-2l-1 -6c0,0 0,-1 0,-1l0 -1c0,0 0,0 0,0 -1,1 -1,1 -2,1 0,0 0,-1 0,-2l-4 0c0,1 0,2 0,4z"/>
  <path class="fil5" d="M48 420c0,-1 -1,-2 -1,-4l0 0c-3,0 -5,-1 -8,-2l-2 -1c-5,-2 -17,-6 -9,-12 0,0 1,0 1,-1 4,-2 11,-4 15,-5 1,0 1,0 2,0 0,0 0,0 0,0l1 0 1 -2c0,-1 1,-2 1,-3 -1,1 0,0 -1,1 -3,1 -7,1 -10,2 -4,1 -27,5 -29,12 -3,9 33,14 39,15z"/>
  <path class="fil5" d="M48 420c0,1 3,4 3,5l9 4c5,2 17,5 23,5 0,-4 0,-3 1,-4l5 -9c-3,0 -6,0 -9,0l-8 0c-2,0 -3,-1 -5,-1 -1,0 -2,0 -3,0l-17 -3c0,2 1,3 1,4z"/>
  <path class="fil10" d="M149 403c2,0 5,1 6,2 1,0 1,0 1,1 0,1 -5,2 -7,3 -1,2 0,2 -2,3l0 1c0,0 0,1 0,1 -1,0 -1,0 -1,0 -1,1 -1,1 -3,1 -2,0 -3,0 -5,1l-1 0c-2,1 -2,1 -4,1 -2,0 -10,1 -11,1 -2,0 -4,0 -6,1l-12 0 -1 -3c-3,0 -10,0 -12,0l-1 3c0,1 0,1 0,1l15 0c0,1 2,3 2,3l10 -1c1,0 2,0 3,0 1,0 1,0 2,0 1,0 2,0 3,0 1,0 2,0 3,0 5,-1 2,0 5,-1 1,0 2,0 3,0 3,0 5,0 5,-1 1,0 1,-1 2,-1l5 -1 1 -1c0,-1 0,-2 1,-3 0,0 7,-2 9,-2 1,0 0,0 2,-1 6,-2 10,-6 2,-10 -1,-1 -1,0 -3,-1 0,0 0,0 0,0 -2,-1 -7,-2 -9,-2 -1,0 -1,0 -2,-1 0,1 1,2 1,4 0,1 0,1 1,2 0,1 0,1 1,1z"/>
  <path class="fil11" d="M115 327l0 0 0 57c1,0 0,0 1,0l6 -2c0,-9 0,-18 0,-28 0,-4 -1,-26 -1,-27 -2,0 -4,1 -6,0z"/>
  <path class="fil5" d="M62 446c0,1 2,1 5,2 4,1 10,2 14,3 1,0 2,0 3,0l0 -3 0 -13c-6,0 -17,-4 -23,-5l-9 -4c2,2 5,5 9,6l1 15z"/>
  <path class="fil6" d="M110 440l0 9c0,3 0,7 0,10 1,0 2,0 3,0 5,-1 9,-2 13,-3l5 -2c0,0 0,0 0,0 0,0 0,0 0,0 0,-1 1,-17 1,-18 0,0 0,1 -1,1l-4 1c-5,2 -9,3 -14,4 -1,0 -2,0 -3,1l0 -3z"/>
  <path class="fil12" d="M108 327l1 5c1,6 1,4 -1,7 -1,1 -1,2 -2,2 -1,1 -2,1 -2,3l5 0 1 40c0,1 0,2 1,4 1,0 3,-2 5,-3l0 -57c-1,0 -3,0 -4,0 -1,0 -2,0 -3,0z"/>
  <path class="fil13" d="M63 327c0,2 -2,51 -2,56 2,0 4,-1 6,-1 0,0 0,0 0,0l1 0c1,0 0,0 0,0l0 -54 1 0 -2 -1 -3 0 0 2z"/>
  <path class="fil14" d="M61 383c-3,1 -5,2 -6,3 -1,1 -2,2 -3,2l-2 3c0,1 -1,2 -1,3 0,0 0,1 1,3 1,1 1,1 1,2 1,1 2,3 3,3l-3 0c1,1 2,2 3,3 1,1 4,1 6,1 2,0 3,0 4,-1 0,0 0,0 0,0 0,0 0,0 0,0l2 -1c2,-1 1,-1 2,-1 1,-1 6,-3 7,-11 0,-1 0,-2 0,-3 0,-1 0,0 0,-1l0 0c0,0 1,-1 1,-1 -1,-2 -3,-3 -5,-3 0,1 0,3 -1,4 -1,2 -1,2 -2,3 0,0 0,0 0,1 -1,1 0,0 -1,1 -3,2 1,2 -6,3 -2,0 -2,0 -3,0 0,0 -1,0 -1,-1l-2 -2c0,0 0,0 -1,0 0,0 0,0 -1,0 0,-3 4,-6 6,-7 4,-2 6,-2 11,-1 0,-1 0,-1 -1,-1 0,0 -1,0 -1,0l-1 0c-3,0 -4,1 -6,1z"/>
  <path class="fil15" d="M78 214c1,2 9,5 13,6 1,-1 3,-2 4,-2 7,-5 13,-12 15,-20 0,-1 1,-4 1,-4 0,-1 -1,-1 -2,-2 -1,-1 -1,-1 -2,-2 -1,-1 -3,-2 -4,-3 0,3 -1,8 -2,11 -1,2 -1,3 -2,4 -4,6 -13,12 -21,12z"/>
  <path class="fil11" d="M74 382l1 0c1,0 1,0 2,0l2 -14c1,-6 1,-16 2,-23 0,-1 0,-2 0,-3 -1,0 -4,-2 -4,-2 2,0 9,2 11,1l0 0c0,0 0,0 0,0l-2 -2c-1,-1 -2,-2 -2,-2 0,-3 2,-7 1,-9l-9 -1 0 56z"/>
  <path class="fil7" d="M114 293c0,1 0,15 0,17 0,6 0,11 0,17 1,0 1,0 2,0 2,0 4,0 6,0l0 0c0,-7 0,-13 0,-20 0,-7 0,-13 0,-20l-5 4c0,0 0,0 0,0 0,0 0,0 0,0l-3 2z"/>
  <path class="fil7" d="M67 326l2 1c2,0 3,0 5,0 1,0 1,0 1,-1 0,-6 0,-13 0,-19l0 -14c0,-1 0,-3 0,-5 -1,0 -2,-1 -2,-2 -1,-1 -2,-1 -2,-2 -1,-1 -1,-1 -2,-1 0,-1 -1,-1 -1,-2l0 0 1 -7 2 0 -4 -1c0,1 -1,4 -1,6 0,2 1,0 1,6 -1,5 0,21 0,27l0 10c0,3 0,3 -1,3z"/>
  <path class="fil12" d="M67 381l1 0c1,0 2,0 3,0 1,0 2,0 3,0l0 -56c0,0 0,0 0,0 -1,0 -3,0 -5,0l-1 0 0 54c0,1 0,0 0,0l-1 0c0,0 0,0 0,0z"/>
  <path class="fil2" d="M43 262c0,1 0,1 1,1 2,3 2,3 1,4 0,0 0,0 -1,1 0,0 -1,1 -1,1 -1,1 -2,1 -3,2 0,1 2,6 3,8 0,1 0,2 1,3l3 8c0,1 0,1 1,1 0,1 0,0 1,1 3,2 11,-4 12,-5 0,-1 0,-2 -1,-3 0,0 0,0 0,0l-2 -4c-1,-2 0,-2 -1,-2 -1,1 -2,2 -3,2 -1,-1 -4,-9 -5,-11 -3,-6 -1,-3 -1,-5 0,-1 -2,-4 -3,-5l-1 3z"/>
  <path class="fil15" d="M67 214c2,0 5,1 7,1l-1 -5c1,1 1,2 2,2 1,1 2,2 2,2 8,0 16,-6 21,-12 1,-1 2,-3 2,-4 1,-3 3,-8 2,-11l-2 -1 0 0c-1,7 -1,15 -10,18 -4,1 -8,1 -12,1 -2,0 -4,-1 -6,0 -2,0 -4,1 -5,2l0 8z"/>
  <path class="fil14" d="M114 387l0 0c-1,0 0,0 -1,0 0,0 -1,1 -1,1 0,1 -1,1 -1,2 2,3 1,1 2,2 1,1 0,0 1,2l1 1c0,1 0,0 0,1 0,1 0,1 1,2 1,3 2,3 3,4l-4 0c0,1 4,3 5,3 1,0 4,0 5,1 2,0 2,0 4,-1 0,0 1,0 1,0 0,0 0,0 0,0 0,0 0,0 0,0 2,-1 2,-1 4,-3 2,-2 4,-7 2,-11 0,-1 0,0 0,-1l0 -1c0,-3 -3,-4 -5,-5 0,0 0,0 0,1 0,1 0,0 -1,2l-1 4c0,1 0,0 0,2 0,1 0,0 -1,2 -1,1 -1,4 -5,3 -2,0 -2,-2 -3,-2l0 0c0,0 0,0 0,0 -2,-1 -1,-1 -3,-2l0 0c0,0 0,0 0,0l-1 0c-1,-1 0,-1 -2,-2 -1,-1 0,0 -1,-2 -1,-1 -1,0 0,-1z"/>
  <path class="fil8" d="M70 383l2 0c2,0 4,2 5,3 0,0 0,1 -1,1l0 0c0,1 0,0 0,1 0,1 0,2 0,3 -1,8 -7,10 -7,11 -1,1 0,0 -2,1l-2 1c0,0 0,0 0,0 0,0 0,0 0,0 -1,1 -2,1 -4,1 -2,0 -4,0 -6,-1 -1,-1 -2,-1 -3,-3l3 0c-1,0 -3,-3 -3,-3 -1,-1 -1,-1 -1,-2 -1,-2 0,-2 -1,-3l-1 2 -1 3c-1,4 0,2 -1,4 0,0 0,1 0,1l-1 3c7,1 16,1 23,1 0,0 1,0 2,0 5,-2 9,-6 11,-11 0,-1 1,-2 1,-4 1,-5 -1,-7 -1,-8 -1,-1 -3,-1 -3,-2 -1,0 -1,0 -2,0l-1 0c-1,0 -2,0 -3,0 -1,0 -2,0 -3,0 0,0 1,0 1,0 1,1 1,0 1,1z"/>
  <path class="fil6" d="M83 448l0 3c-1,0 -2,0 -3,0 -4,-1 -10,-2 -14,-3 -2,-1 -4,-1 -5,-2l1 13c1,0 2,1 3,1l16 3c1,0 2,0 3,0 0,-1 0,-3 0,-4 0,-1 0,-3 0,-3l0 -5c0,-2 0,-1 -1,-1z"/>
  <path class="fil16" d="M76 274c0,0 1,0 1,0 0,0 0,0 1,0 1,0 0,0 1,0 1,0 2,0 3,0l3 0c2,0 6,0 8,0l7 0 8 0 6 0c2,0 4,0 7,-1 2,0 5,-1 7,-1l0 -27c5,0 9,-5 7,-10 -1,-1 -2,-3 -3,-3 0,1 0,1 0,2 -2,-1 -2,-1 -4,0 1,1 3,1 3,3 0,1 0,5 -1,6 -2,0 -3,1 -5,1 -1,6 2,7 -3,16 -3,4 -5,8 -9,11 -3,3 -2,2 -7,2 -3,0 -6,0 -9,0 -7,0 -13,0 -20,0z"/>
  <path class="fil17" d="M111 327c1,0 3,0 4,0l0 0c-1,0 -1,0 -2,0 0,-6 0,-11 0,-17 0,-2 0,-16 0,-17 -2,1 -1,1 -3,1 -1,-1 -4,-6 -5,-7 -1,-1 0,-1 0,-1 0,0 0,1 -1,1 0,0 0,1 -1,1l-2 3c-1,1 0,1 0,3l7 32 1 0z"/>
  <path class="fil11" d="M76 383c1,1 2,1 3,2 1,0 1,0 1,1 1,1 1,1 2,1l1 -4 1 -40 4 0c0,0 0,-1 -1,-1 0,0 0,0 0,0 0,0 0,0 0,0 -2,1 -9,-1 -11,-1 0,1 3,2 4,2 0,1 0,2 0,3 -1,6 -1,17 -2,23l-2 14z"/>
  <path class="fil9" d="M83 327c0,3 -2,7 -1,9 1,1 2,1 2,2l2 2c0,0 0,0 0,0l0 0c1,0 0,0 0,0 0,0 0,0 0,0 0,0 0,1 1,1 1,0 1,1 2,2l4 4c1,1 1,2 2,2 1,0 7,-7 8,-8 1,-1 1,-2 2,-3 1,-1 1,-2 2,-2 3,-3 3,-1 1,-7 -1,0 -2,1 -3,1 -8,5 -7,4 -16,8 0,-3 1,-5 1,-7 -2,1 -2,2 -6,3 0,-1 1,-8 2,-8 0,1 -4,2 -4,2 0,-2 1,-4 1,-5 0,0 0,0 0,0l-1 1z"/>
  <path class="fil5" d="M146 397c1,1 0,0 2,1 2,0 8,2 9,2 0,0 0,0 0,0 1,1 2,1 3,1 8,4 5,8 -2,10 -2,1 -2,1 -2,1 -1,1 -9,2 -9,2 0,0 -1,2 -1,3 5,0 9,-2 11,-2 14,-2 30,-11 6,-18 -5,-2 -11,-3 -17,-3l1 2z"/>
  <path class="fil5" d="M81 226c-12,2 -8,18 3,16 4,-1 8,-5 7,-10 -1,-4 -5,-7 -10,-7z"/>
  <path class="fil5" d="M115 242c5,-3 5,-10 1,-13 -3,-2 -6,-3 -9,-1 -3,1 -5,3 -5,7 0,4 2,6 4,8 3,2 6,1 10,0z"/>
  <path class="fil18" d="M87 283c0,1 2,6 3,7 1,2 1,1 0,3 0,1 -1,3 -1,4 2,0 2,-2 4,-2l1 -1c0,-2 0,-3 0,-4l4 0c0,1 0,1 0,2 1,-1 1,0 2,-1 1,-1 1,-1 1,-2 0,-1 1,-1 1,-2 1,-1 1,-3 2,-4 -1,-1 -4,-6 -5,-7l-7 0c0,1 -5,7 -5,8z"/>
  <path class="fil7" d="M133 326c3,0 6,-1 8,-2l0 0c1,0 0,0 1,0 0,-2 -1,-4 -1,-5 -1,-2 -1,0 -1,-2 0,-1 0,-2 0,-3 -1,-5 -5,-24 -7,-28 0,0 0,0 0,0l0 0c0,8 0,22 0,31 0,4 1,1 1,5 0,2 0,3 0,5z"/>
  <path class="fil10" d="M57 277c1,0 0,0 1,2l2 4c0,0 0,0 0,0 0,1 1,2 1,3 1,0 2,-1 2,-2 1,-1 1,-1 2,-2 0,11 -1,23 -1,33 0,2 0,3 0,5 0,1 0,2 0,3 0,1 0,0 0,1 0,1 0,1 0,1l0 -2 3 0c1,0 1,0 1,-3l0 -10c1,-7 -1,-22 0,-27 1,-6 -1,-3 -1,-6 0,-2 0,-5 1,-6l-2 0c-1,1 -7,2 -9,4z"/>
  <path class="fil5" d="M46 416c0,-1 -1,-2 -1,-3 -3,0 -13,-4 -12,-7 0,-4 11,-7 13,-7l1 -3 -1 0c0,0 0,0 0,0 -1,0 -1,0 -2,0 -4,1 -12,3 -15,5 0,0 -1,0 -1,1 -8,6 4,10 9,12l2 1c2,0 5,2 8,2z"/>
  <path class="fil7" d="M30 269c1,4 2,2 3,3 1,2 2,4 3,5 2,4 9,13 12,14 0,-1 0,-1 -1,-1 0,0 0,-1 -1,-1l-3 -8c0,-1 0,-2 -1,-3 -1,-2 -3,-7 -3,-8 1,0 2,-1 3,-2 1,0 1,-1 1,-1 0,0 0,0 1,-1 1,-1 1,-1 -1,-4 0,-1 0,0 -1,-1 0,1 -1,1 -1,2 -3,3 -8,6 -12,6z"/>
  <path class="fil0" d="M140 346c1,-1 6,-8 6,-10 0,-1 -4,-9 -5,-12l0 0c0,1 0,0 0,1l-2 2c-2,-1 -3,1 -4,2 -2,3 -2,5 -1,8 0,1 1,1 1,2 1,2 0,1 2,3 1,1 0,0 1,1 0,-1 2,-5 2,-6 0,1 0,3 0,4 0,2 0,3 0,4z"/>
  <path class="fil19" d="M114 387c0,1 0,0 0,1 1,1 0,1 1,2 1,1 1,1 2,2l1 0c0,0 0,0 0,0l0 0c1,1 0,2 3,2 0,0 0,0 0,0l0 0c1,1 1,2 3,2 4,1 4,-3 5,-3 1,-1 0,-1 1,-2 1,-2 0,-1 0,-2l1 -4c0,-2 0,-1 1,-2 0,0 0,0 0,-1 -4,-2 -11,-1 -15,2 -1,0 -1,1 -2,1z"/>
  <path class="fil1" d="M38 244c0,1 1,1 1,2 -1,0 -2,1 -3,2 -2,2 -4,3 -4,6 -1,3 0,3 0,4 4,0 10,-6 12,-10 2,-4 3,-9 1,-14 0,-1 -1,-3 -1,-4 -2,1 -3,3 -4,5 0,1 -1,2 -1,4 0,1 0,3 0,4z"/>
  <path class="fil8" d="M79 384c0,2 1,3 1,8 0,2 -1,3 -1,4 -2,5 -6,9 -11,11 0,0 -1,0 -2,0l14 0c1,0 0,0 1,0 -1,0 -1,0 -2,0 1,-1 2,-2 3,-3 2,-2 2,-2 2,-4 1,-2 1,-2 2,-5 0,-2 0,-4 0,-7l0 0c0,-1 -1,-2 -2,-3 0,0 0,-1 -1,-1 0,-1 0,-1 -1,-1l-1 4c-1,0 -1,-1 -2,-1 -1,-1 -1,-1 -1,-1z"/>
  <path class="fil16" d="M24 267c0,1 4,2 6,2 4,0 10,-3 12,-6 1,-1 1,-1 1,-2l1 -3c0,-2 1,-4 1,-6l0 -3c0,1 -4,6 -5,7l0 0c-1,0 0,0 -1,1l-3 2c-5,2 -3,1 -5,0 -1,2 -2,3 -3,4 -3,3 -4,2 -3,3z"/>
  <path class="fil13" d="M72 383l-2 0c-5,0 -7,0 -11,1 -2,1 -6,4 -6,7 0,0 0,0 1,0 0,0 0,0 1,0l2 2c0,0 1,1 1,1 2,1 2,1 3,0 7,-1 3,-1 6,-3 1,-1 0,0 1,-1 0,0 0,0 0,-1 1,-1 1,-2 2,-3 1,-1 1,-2 1,-4z"/>
  <path class="fil14" d="M116 383c1,0 0,0 -1,1 -1,1 -1,1 -2,1l0 1 0 0c1,0 1,-1 2,-1 4,-3 11,-4 15,-2 2,1 5,2 5,5l0 1c0,1 0,0 0,1 1,4 0,8 -2,11 -2,2 -2,2 -4,3 0,0 0,0 0,0 0,0 0,0 0,0 0,0 -1,0 -1,0 -2,1 -2,1 -4,1 -1,0 -4,0 -5,-1 -1,-1 -5,-3 -5,-3l4 0c-1,-1 -2,-2 -3,-4 0,-1 0,-1 -1,-2 0,-1 0,0 0,-1l-1 -1c-1,-1 0,-1 -1,-2 -1,-1 0,1 -2,-2 -1,1 -1,1 -1,3 2,1 1,2 2,4 1,4 1,3 2,4 0,0 0,0 -1,0 -1,0 0,0 -1,1 1,1 1,1 2,2 2,2 2,1 4,2 3,2 9,1 11,0 9,-4 12,-16 4,-23 -1,-1 -1,0 -1,-1 0,0 0,0 0,0 0,0 0,0 0,0 0,0 0,0 0,0 -1,0 -1,0 -2,-1 -1,0 -1,0 -2,0 -2,0 -3,0 -5,0l-6 2z"/>
  <path class="fil9" d="M90 284c0,6 5,7 9,6 1,0 1,0 2,-1 3,-3 3,-7 1,-9 -1,-1 -1,-2 -2,-2 -1,-1 -1,-1 -4,-1 -2,0 -3,2 -4,3 -1,1 -1,3 -1,4z"/>
  <path class="fil18" d="M93 333l-1 0c-1,2 -1,5 -1,7 9,-4 8,-4 16,-8 1,-1 1,-1 3,-1l-1 -5 0 -2c-4,2 -8,4 -11,6 -1,1 -3,2 -4,2z"/>
  <path class="fil0" d="M22 247l1 1c0,0 0,0 0,0l1 -1c0,0 0,-1 0,-1 1,-2 1,-2 1,-4 0,0 0,-1 0,-1 0,-1 0,0 0,-1 -1,-1 -2,-2 -3,-3 -1,-1 -2,-2 -3,-3 -1,-1 -2,-2 -3,-3 -1,-1 -1,-2 -2,-3 -2,1 -6,5 -1,10 1,1 1,1 2,2l4 4c1,2 1,1 2,2z"/>
  <path class="fil16" d="M133 326l-4 0 0 2 0 9 0 1c3,-1 0,-1 3,0 0,2 0,3 0,5 0,2 0,3 1,4 1,-1 3,-1 4,-1l2 -1c0,-1 0,-3 0,-4 0,-1 0,-3 0,-4 0,1 -2,5 -2,6 -1,0 0,0 -1,-1 -3,-2 -1,-1 -2,-3 -1,-1 -1,-1 -1,-2 -1,-3 -1,-5 1,-8 1,-1 2,-3 4,-2l2 -2c1,-1 0,-1 0,-1 -2,1 -6,1 -8,2z"/>
  <path class="fil20" d="M108 229c-8,2 -4,13 3,11 3,-1 5,-3 4,-7 -1,-3 -4,-5 -8,-4z"/>
  <path class="fil20" d="M81 229c-8,2 -4,13 4,11 7,-2 4,-13 -4,-11z"/>
  <path class="fil21" d="M81 408c1,1 7,-1 9,-1 0,-1 0,-2 0,-2 0,0 0,0 1,-1 0,-1 0,-1 0,-1 0,-2 -1,-4 -1,-6l-2 -4 -2 -5 0 0c0,2 0,5 0,7 -1,3 -1,3 -2,5 0,2 -1,2 -2,4 -1,1 -2,3 -3,3 1,0 1,0 2,0z"/>
  <path class="fil10" d="M46 413c0,-2 -1,-1 -1,-2 0,-1 -1,-2 -1,-3 -1,0 -1,0 -2,-1 -3,-1 0,-2 2,-3l1 -1c0,0 0,-1 0,-1 1,-2 0,1 1,-4 -2,0 -12,3 -13,7 0,4 10,7 12,7z"/>
  <path class="fil7" d="M81 252l-1 1c-1,1 -1,1 -1,2l1 0c2,0 6,-1 8,0l5 0c2,0 3,0 5,0 2,0 8,0 9,0 2,0 4,0 6,0l1 0 -2 -3 0 0 -30 0z"/>
  <path class="fil18" d="M84 263c3,1 7,1 10,1 2,0 4,0 6,0 2,0 4,-1 6,-1l1 0 -1 1c1,0 1,0 2,-1 0,0 -1,0 0,-1 -2,0 -1,0 -2,-2 -1,-1 -1,-1 -2,-2 -4,-1 -4,0 -8,0 -1,0 -2,0 -4,0 -2,0 -2,0 -4,0 -2,0 -4,2 -4,4z"/>
  <path class="fil10" d="M81 290l1 1 5 -7c0,0 5,-7 5,-8 -2,0 -6,-1 -8,0l-2 0c0,2 -1,5 -1,7 0,2 -1,5 -1,7z"/>
  <path class="fil7" d="M108 275c0,1 3,14 3,15 1,0 2,-1 3,-1l3 -2 -2 -8c0,-1 0,0 -1,-1 0,-1 -1,-2 -1,-3l-6 0z"/>
  <path class="fil2" d="M71 284c1,0 1,1 2,2 1,0 2,1 3,1 -1,-3 1,-9 1,-13l2 0c0,0 0,0 -1,0 0,0 0,0 -1,0 0,0 -1,0 -1,0l-4 0 -2 0 -1 7 0 0c1,0 1,1 1,2 1,1 1,1 2,1z"/>
  <path class="fil15" d="M66 222l0 2c1,0 2,0 3,1 1,0 2,0 3,0 0,0 0,0 0,0l1 -2c0,-1 1,-1 1,-2 0,0 -1,-6 -1,-6 -2,0 -5,-1 -7,-1l0 8z"/>
  <path class="fil0" d="M18 253c0,-1 2,-6 -1,-8 0,-2 0,0 0,-1 -1,-1 -5,-3 -6,-4 -1,-1 -2,-2 -3,-1 -1,1 -1,2 -1,4 0,4 5,4 7,7 1,1 2,2 3,2z"/>
  <path class="fil7" d="M76 288c1,0 0,0 0,0l2 1c1,0 2,1 3,1 0,-2 0,-5 1,-7 0,-2 1,-5 1,-7l2 0 -3 0c-1,0 -2,0 -3,0l-2 0c0,3 -2,10 -1,13z"/>
  <path class="fil10" d="M100 275c1,1 4,6 5,7l0 0c0,0 0,0 0,0l5 7 1 0c0,-1 -3,-14 -3,-15l-8 0z"/>
  <path class="fil22" d="M88 259c1,0 2,0 4,0 1,0 2,1 4,0 3,0 4,-1 8,0 0,-1 0,-2 0,-3 0,-1 -1,-1 -1,-2l4 0c-1,-1 -7,0 -9,0 -2,0 -3,0 -5,0l-5 0 2 0c-1,1 -1,2 -1,4z"/>
  <path class="fil18" d="M106 318c0,-1 -1,-5 -1,-6 -2,1 -5,3 -7,4 -2,1 -1,2 -2,4l-1 4c2,-1 10,-4 11,-6z"/>
  <path class="fil23" d="M103 259c1,0 2,1 2,2 1,2 0,2 2,2 0,1 0,0 0,1 2,-1 6,-5 7,-8 -1,0 -2,0 -3,0 -2,0 -4,0 -6,0l-4 0c0,1 1,1 1,2 0,1 0,2 0,3z"/>
  <path class="fil17" d="M91 403c2,0 8,0 10,0 0,-3 0,-4 1,-6 -2,1 -4,0 -6,0 -2,0 -5,1 -6,0 0,2 1,4 1,6z"/>
  <path class="fil23" d="M80 255c0,0 0,0 -1,0 0,0 0,0 0,0 0,0 -1,0 -1,0 1,3 4,8 7,8 0,-2 2,-3 4,-4 0,-2 1,-3 1,-4l-2 0c-2,-1 -6,0 -8,0z"/>
  <path class="fil10" d="M90 397c2,1 4,0 6,0 2,0 5,0 6,0l2 -4c-2,0 -14,0 -15,0l2 4z"/>
  <path class="fil24" d="M97 309c-1,1 -1,1 -2,1 -1,0 -1,0 -2,1 -5,3 -2,3 -4,10 1,0 3,-1 4,-2 1,0 1,-1 2,-1 1,0 1,-1 2,-1 1,-1 2,-7 2,-7 0,-1 1,0 0,-1l-1 0z"/>
  <path class="fil24" d="M88 328c0,1 -2,7 -2,8 3,-1 4,-2 6,-3l1 0c0,-3 1,-5 1,-8 -1,0 -3,1 -3,1 -1,0 -2,1 -3,2z"/>
  <path class="fil25" d="M130 351l0 -1c2,2 1,3 5,-1 1,-1 2,-2 3,-2 -1,0 -3,1 -4,1 -1,-1 -1,-2 -1,-4 -1,-2 0,-3 0,-5 -3,-1 -1,-1 -3,0l0 -1c0,2 0,13 1,14z"/>
  <path class="fil18" d="M97 309l1 0 0 0c1,-1 2,-1 3,-1 1,-1 2,-1 3,-2 0,-1 -1,-5 -1,-6 -1,0 -2,1 -3,2 -3,2 -2,1 -3,6 0,1 0,1 0,2 0,1 -1,1 0,1z"/>
  <path class="fil4" d="M66 232l0 1 4 -1c0,-1 1,-2 1,-4 1,-1 1,-2 2,-4 -1,0 -2,0 -3,0 -1,0 -2,0 -3,-1l0 9z"/>
  <path class="fil24" d="M94 295l-1 1 -2 8c1,0 5,-2 5,-3l1 -8c-2,0 -2,1 -4,2z"/>
  <path class="fil26" d="M98 243c0,0 0,0 0,0l-1 1c0,0 0,1 -1,1 0,1 -1,2 -1,3 2,-1 5,-3 5,-5 0,-2 -1,-6 -5,-6 0,2 1,4 2,5z"/>
  <path class="fil26" d="M64 243c2,-3 2,-4 2,-8 -1,-1 -3,-1 -3,0 -1,1 -1,2 -2,3 -1,3 2,4 3,5z"/>
  <path class="fil13" d="M115 234l-2 0c0,2 0,3 -2,3 -2,0 -3,-1 -3,-2 -1,0 -1,0 -2,0l0 -1c0,0 0,0 0,1 -1,4 5,7 8,4 1,-1 2,-2 1,-4z"/>
  <path class="fil13" d="M87 234c-1,1 -1,0 -2,0 0,4 -5,4 -5,1 -1,0 -1,0 -2,-1 -1,2 0,6 4,6 3,0 6,-3 5,-6z"/>
  <path class="fil21" d="M109 230c2,1 1,3 -1,4 0,1 1,3 3,2 2,0 2,-1 2,-3l2 0c0,-2 -1,-3 -2,-3 -1,0 -3,-2 -4,0z"/>
  <path class="fil21" d="M80 235c0,3 5,4 5,-1 1,0 2,0 2,0 0,-1 -1,-2 -2,-3 -1,0 -2,-1 -4,-1 1,2 0,3 -1,4z"/>
  <path class="fil15" d="M76 225c4,-2 3,-3 10,-3 0,0 0,-1 0,-1l0 -1c-4,0 -9,2 -9,6z"/>
  <path class="fil6" d="M105 233l0 1c1,0 1,0 2,0 2,-1 3,-3 1,-4 -2,0 -4,1 -3,3z"/>
  <path class="fil6" d="M78 234c1,1 1,1 2,1 2,-1 2,-2 1,-4 -2,-1 -5,1 -4,3z"/>
  <path class="fil13" d="M112 255c1,0 2,0 3,0l1 -3c-1,0 -3,0 -4,0l2 3 -1 0z"/>
  <path class="fil19" d="M78 255c0,0 1,0 1,0 0,0 0,0 0,0 1,0 0,0 1,0l-1 0c0,-1 0,-1 1,-2l1 -1 -4 0c-1,1 0,2 0,3z"/>
  <rect class="fil27" x="136" y="-3" width="366" height="190"/>
  <polygon class="fil27" points="229,187 260,187 210,218 "/>
  <text x="232" y="98"  class="fil6 fnt0">Login dulu ya ...</text>
 </g>
</svg>
